<svg id="svg" version="1.1" xmlns="http://www.w3.org/2000/svg" xmlns:xlink="http://www.w3.org/1999/xlink" width="400" height="400" viewBox="0, 0, 400,400"><g id="svgg"><path id="path0" d="M140.253 22.980 C 142.196 23.354,145.009 23.340,146.503 22.949 C 147.996 22.557,146.406 22.252,142.969 22.269 C 139.531 22.286,138.309 22.606,140.253 22.980 M165.234 22.978 C 167.168 23.350,170.332 23.350,172.266 22.978 C 174.199 22.605,172.617 22.301,168.750 22.301 C 164.883 22.301,163.301 22.605,165.234 22.978 M142.969 25.076 C 123.211 27.149,99.747 35.029,87.617 43.667 C 82.487 47.319,80.552 47.767,82.190 44.922 C 82.843 43.787,82.718 43.514,81.891 44.271 C 81.109 44.987,80.469 46.335,80.469 47.266 C 80.469 48.197,79.492 49.284,78.298 49.682 C 76.786 50.186,76.531 49.751,77.458 48.250 C 81.553 41.613,57.058 64.823,49.227 75.000 C 47.574 77.148,50.976 73.830,56.788 67.625 C 62.600 61.420,69.603 54.776,72.350 52.861 C 75.096 50.946,72.021 54.616,65.515 61.018 C 59.009 67.419,51.761 75.117,49.409 78.125 C 47.056 81.133,45.637 82.539,46.254 81.250 C 46.901 79.898,46.783 79.449,45.974 80.188 C 45.202 80.894,44.552 82.300,44.528 83.313 C 44.505 84.327,41.514 91.171,37.882 98.522 C -21.441 218.598,119.509 340.957,230.153 265.432 L 239.480 259.066 297.474 316.868 C 329.371 348.659,357.103 375.160,359.100 375.758 C 367.725 378.343,377.968 368.436,375.808 359.597 C 375.168 356.977,353.662 334.284,316.933 297.474 L 259.066 239.480 265.491 230.067 C 296.308 184.921,295.074 120.809,262.573 78.484 C 255.952 69.860,254.950 67.837,258.203 69.659 C 262.774 72.219,242.588 52.845,236.068 48.415 C 229.861 44.197,229.636 44.134,234.375 47.940 C 237.383 50.355,243.711 56.124,248.438 60.759 L 257.031 69.186 247.656 60.890 C 217.052 33.807,180.135 21.178,142.969 25.076 M96.484 35.269 C 90.426 38.555,91.112 39.690,97.266 36.560 C 103.156 33.565,104.198 32.788,102.214 32.875 C 101.426 32.909,98.848 33.987,96.484 35.269 M190.367 56.649 C 263.896 82.747,285.285 175.548,230.416 230.416 C 175.565 285.267,82.308 263.764,56.722 190.367 C 28.409 109.148,109.548 27.964,190.367 56.649 M144.162 54.246 C 146.537 54.605,150.053 54.596,151.975 54.225 C 153.896 53.854,151.953 53.560,147.656 53.572 C 143.359 53.584,141.787 53.887,144.162 54.246 M161.350 54.246 C 163.725 54.605,167.240 54.596,169.162 54.225 C 171.084 53.854,169.141 53.560,164.844 53.572 C 160.547 53.584,158.975 53.887,161.350 54.246 M92.550 74.195 C 83.198 81.225,74.745 90.470,69.669 99.219 C 66.993 103.831,66.995 103.845,69.803 100.089 C 79.583 87.004,88.883 77.763,100.079 70.004 C 102.184 68.545,103.449 67.315,102.889 67.269 C 102.330 67.224,97.677 70.341,92.550 74.195 M210.156 68.220 C 211.016 69.032,215.713 72.696,220.596 76.362 C 225.478 80.028,232.472 87.022,236.138 91.904 C 244.866 103.528,246.397 105.061,242.800 98.575 C 238.983 91.692,220.808 73.517,213.925 69.700 C 210.993 68.074,209.297 67.408,210.156 68.220 M263.183 77.076 C 265.590 80.231,267.874 82.813,268.261 82.813 C 269.346 82.813,262.582 73.672,260.581 72.436 C 259.606 71.833,260.777 73.921,263.183 77.076 M35.860 95.464 C 34.064 98.985,32.862 102.133,33.190 102.461 C 33.518 102.788,35.315 99.908,37.185 96.059 C 41.443 87.295,40.292 86.777,35.860 95.464 M276.087 97.637 C 277.516 100.634,278.962 102.808,279.302 102.469 C 280.016 101.755,275.273 92.188,274.204 92.188 C 273.810 92.188,274.657 94.640,276.087 97.637 M22.238 140.625 C 22.238 143.633,22.559 144.863,22.952 143.359 C 23.345 141.855,23.345 139.395,22.952 137.891 C 22.559 136.387,22.238 137.617,22.238 140.625 M289.457 142.969 C 289.474 146.406,289.794 147.629,290.168 145.685 C 290.541 143.741,290.527 140.929,290.136 139.435 C 289.745 137.941,289.439 139.531,289.457 142.969 M53.572 147.656 C 53.584 151.953,53.887 153.525,54.246 151.150 C 54.605 148.775,54.596 145.260,54.225 143.338 C 53.854 141.416,53.560 143.359,53.572 147.656 M258.259 147.656 C 258.271 151.953,258.575 153.525,258.934 151.150 C 259.293 148.775,259.283 145.260,258.912 143.338 C 258.542 141.416,258.248 143.359,258.259 147.656 M53.572 164.844 C 53.584 169.141,53.887 170.713,54.246 168.338 C 54.605 165.963,54.596 162.447,54.225 160.525 C 53.854 158.604,53.560 160.547,53.572 164.844 M258.259 164.844 C 258.271 169.141,258.575 170.713,258.934 168.338 C 259.293 165.963,259.283 162.447,258.912 160.525 C 258.542 158.604,258.248 160.547,258.259 164.844 M289.457 169.531 C 289.474 172.969,289.794 174.191,290.168 172.247 C 290.541 170.304,290.527 167.491,290.136 165.997 C 289.745 164.504,289.439 166.094,289.457 169.531 M22.238 171.875 C 22.238 174.883,22.559 176.113,22.952 174.609 C 23.345 173.105,23.345 170.645,22.952 169.141 C 22.559 167.637,22.238 168.867,22.238 171.875 M26.752 193.750 C 26.725 195.039,27.669 198.203,28.850 200.781 C 31.613 206.816,31.654 204.009,28.906 196.875 C 27.748 193.867,26.778 192.461,26.752 193.750 M31.250 206.823 C 31.250 208.516,39.015 223.438,39.896 223.438 C 40.326 223.438,38.823 219.746,36.557 215.234 C 32.198 206.557,31.250 205.054,31.250 206.823 M69.700 213.925 C 73.517 220.808,91.692 238.983,98.575 242.800 C 105.061 246.397,103.528 244.866,91.904 236.138 C 87.022 232.472,80.028 225.478,76.362 220.596 C 67.634 208.972,66.103 207.439,69.700 213.925 M237.215 219.259 C 233.192 224.696,225.809 232.217,220.809 235.974 C 208.967 244.871,207.414 246.411,213.925 242.800 C 220.540 239.132,238.863 220.972,242.666 214.315 C 246.930 206.853,245.311 208.322,237.215 219.259 M275.315 216.441 C 273.445 220.289,272.244 223.438,272.645 223.438 C 273.703 223.438,280.017 210.746,279.310 210.039 C 278.982 209.712,277.185 212.592,275.315 216.441 M43.271 230.078 C 46.932 236.664,75.836 265.568,82.422 269.229 C 90.065 273.478,88.535 271.545,79.123 265.063 C 69.358 258.337,52.425 241.176,46.145 231.641 C 40.976 223.791,39.257 222.857,43.271 230.078 M262.413 236.823 C 260.652 238.945,268.004 246.919,317.509 296.589 C 348.929 328.113,375.400 355.313,376.333 357.031 C 377.470 359.126,378.046 359.399,378.077 357.861 C 378.104 356.598,351.988 329.394,320.043 297.408 C 269.829 247.127,262.236 238.920,263.985 236.812 C 265.097 235.472,265.656 234.375,265.226 234.375 C 264.797 234.375,263.531 235.477,262.413 236.823 M144.162 258.934 C 146.537 259.293,150.053 259.283,151.975 258.912 C 153.896 258.542,151.953 258.248,147.656 258.259 C 143.359 258.271,141.787 258.575,144.162 258.934 M161.350 258.934 C 163.725 259.293,167.240 259.283,169.162 258.912 C 171.084 258.542,169.141 258.248,164.844 258.259 C 160.547 258.271,158.975 258.575,161.350 258.934 M235.738 263.672 C 233.779 266.170,233.838 266.214,236.422 264.184 C 239.020 262.143,243.982 266.688,297.408 320.043 C 329.394 351.988,356.598 378.122,357.861 378.119 C 359.123 378.116,358.047 376.781,355.469 375.152 C 352.891 373.524,325.824 347.159,295.321 316.564 C 264.817 285.970,239.415 260.938,238.871 260.938 C 238.328 260.938,236.918 262.168,235.738 263.672 M89.063 272.647 C 89.063 273.699,104.879 281.580,105.580 280.878 C 105.901 280.558,102.315 278.409,97.613 276.102 C 92.910 273.796,89.063 272.241,89.063 272.647 M214.063 276.563 C 209.336 279.060,206.019 281.136,206.693 281.176 C 208.353 281.276,223.438 273.577,223.438 272.630 C 223.438 271.586,223.654 271.495,214.063 276.563 M111.719 283.650 C 114.297 284.831,117.461 285.775,118.750 285.748 C 120.039 285.722,118.633 284.752,115.625 283.594 C 108.491 280.846,105.684 280.887,111.719 283.650 M196.875 283.594 C 193.867 284.752,192.461 285.722,193.750 285.748 C 195.039 285.775,198.203 284.831,200.781 283.650 C 206.816 280.887,204.009 280.846,196.875 283.594 M137.891 290.140 C 139.395 290.533,141.855 290.533,143.359 290.140 C 144.863 289.747,143.633 289.425,140.625 289.425 C 137.617 289.425,136.387 289.747,137.891 290.140 M169.141 290.140 C 170.645 290.533,173.105 290.533,174.609 290.140 C 176.113 289.747,174.883 289.425,171.875 289.425 C 168.867 289.425,167.637 289.747,169.141 290.140 M375.747 368.858 C 375.183 370.636,372.499 373.446,369.782 375.102 C 367.066 376.758,365.777 378.116,366.917 378.119 C 369.394 378.126,378.125 369.704,378.125 367.308 C 378.125 364.557,376.848 365.390,375.747 368.858 " stroke="none" fill="#000000" fill-rule="evenodd"></path></g></svg>