<svg id="svg" version="1.1" xmlns="http://www.w3.org/2000/svg" xmlns:xlink="http://www.w3.org/1999/xlink" width="400" height="157.84313725490196" viewBox="0, 0, 400,157.84313725490196"><g id="svgg"><path id="path0" d="M15.333 0.250 C 15.333 0.444,15.113 0.500,14.347 0.500 C 13.386 0.500,13.357 0.513,13.250 1.000 C 13.145 1.479,13.104 1.500,12.250 1.500 C 11.482 1.500,11.290 1.569,10.859 2.000 C 10.520 2.339,10.194 2.500,9.846 2.500 C 9.390 2.500,9.333 2.554,9.333 2.991 C 9.333 3.458,9.295 3.484,8.543 3.533 C 7.869 3.576,7.720 3.651,7.534 4.042 C 7.384 4.356,7.188 4.500,6.911 4.500 C 6.618 4.500,6.477 4.615,6.401 4.918 C 6.339 5.166,6.140 5.376,5.913 5.433 C 5.698 5.487,5.487 5.698,5.433 5.913 C 5.376 6.140,5.166 6.339,4.918 6.401 C 4.615 6.477,4.500 6.618,4.500 6.911 C 4.500 7.188,4.356 7.384,4.042 7.534 C 3.651 7.720,3.576 7.869,3.533 8.543 C 3.484 9.295,3.458 9.333,2.991 9.333 C 2.554 9.333,2.500 9.390,2.500 9.846 C 2.500 10.194,2.339 10.520,2.000 10.859 C 1.569 11.290,1.500 11.482,1.500 12.250 C 1.500 13.104,1.479 13.145,1.000 13.250 C 0.513 13.357,0.500 13.386,0.500 14.347 C 0.500 15.113,0.444 15.333,0.250 15.333 C 0.028 15.333,0.000 23.361,0.000 86.583 L 0.000 157.833 0.750 157.833 C 1.290 157.833,1.500 157.766,1.500 157.594 C 1.500 157.458,1.696 157.333,1.958 157.303 C 2.315 157.262,2.428 157.151,2.468 156.802 C 2.508 156.455,2.622 156.342,2.968 156.302 C 3.318 156.261,3.428 156.149,3.469 155.792 C 3.511 155.432,3.609 155.333,3.928 155.333 C 4.265 155.333,4.333 155.251,4.333 154.844 C 4.333 154.435,4.408 154.347,4.792 154.303 C 5.152 154.261,5.261 154.152,5.303 153.792 C 5.338 153.488,5.453 153.333,5.644 153.333 C 6.060 153.333,6.333 153.000,6.333 152.492 C 6.333 152.048,6.777 151.500,7.138 151.500 C 7.245 151.500,7.333 151.275,7.333 151.000 C 7.333 150.556,7.389 150.500,7.833 150.500 C 8.278 150.500,8.333 150.444,8.333 150.000 C 8.333 149.556,8.389 149.500,8.833 149.500 C 9.275 149.500,9.333 149.443,9.333 149.011 C 9.333 148.602,9.408 148.514,9.792 148.469 C 10.152 148.428,10.261 148.318,10.303 147.958 C 10.344 147.603,10.444 147.500,10.748 147.500 C 11.046 147.500,11.166 147.383,11.248 147.010 C 11.321 146.676,11.471 146.504,11.719 146.468 C 11.959 146.434,12.103 146.278,12.141 146.011 C 12.172 145.787,12.416 145.401,12.682 145.152 L 13.167 144.700 13.167 83.350 C 13.167 24.383,13.178 22.000,13.467 22.000 C 14.010 22.000,14.167 21.640,14.167 20.394 C 14.167 19.203,14.172 19.188,14.625 19.136 C 14.975 19.096,15.095 18.983,15.133 18.659 C 15.167 18.364,15.334 18.177,15.674 18.048 C 16.040 17.910,16.167 17.754,16.167 17.443 C 16.167 17.135,16.266 17.009,16.542 16.970 C 16.783 16.936,16.936 16.783,16.970 16.542 C 17.009 16.266,17.135 16.167,17.443 16.167 C 17.754 16.167,17.910 16.040,18.048 15.674 C 18.177 15.334,18.364 15.167,18.659 15.133 C 18.983 15.095,19.096 14.975,19.136 14.625 C 19.188 14.172,19.203 14.167,20.394 14.167 C 21.640 14.167,22.000 14.010,22.000 13.467 C 22.000 13.178,28.704 13.167,200.000 13.167 C 371.296 13.167,378.000 13.178,378.000 13.467 C 378.000 14.010,378.360 14.167,379.606 14.167 C 380.797 14.167,380.812 14.172,380.864 14.625 C 380.904 14.975,381.017 15.095,381.341 15.133 C 381.636 15.167,381.823 15.334,381.952 15.674 C 382.090 16.040,382.246 16.167,382.557 16.167 C 382.865 16.167,382.991 16.266,383.030 16.542 C 383.064 16.783,383.217 16.936,383.458 16.970 C 383.734 17.009,383.833 17.135,383.833 17.443 C 383.833 17.754,383.960 17.910,384.326 18.048 C 384.666 18.177,384.833 18.364,384.867 18.659 C 384.905 18.983,385.025 19.096,385.375 19.136 C 385.828 19.188,385.833 19.203,385.833 20.394 C 385.833 21.640,385.990 22.000,386.533 22.000 C 386.822 22.000,386.833 23.954,386.833 71.745 L 386.833 121.490 386.333 121.860 C 385.890 122.188,385.833 122.327,385.833 123.094 C 385.833 123.921,385.812 123.963,385.333 124.058 C 384.850 124.155,384.833 124.189,384.833 125.079 C 384.833 125.991,384.829 126.000,384.333 126.000 C 383.889 126.000,383.833 126.056,383.833 126.500 C 383.833 126.944,383.778 127.000,383.333 127.000 C 382.889 127.000,382.833 127.056,382.833 127.500 C 382.833 127.966,382.791 128.000,382.208 128.003 C 381.486 128.006,381.292 128.107,381.019 128.625 C 380.898 128.855,380.667 129.000,380.422 129.000 C 379.808 129.000,379.167 129.296,379.167 129.579 C 379.167 129.807,361.561 129.834,210.792 129.836 C 118.185 129.837,42.248 129.883,42.042 129.938 C 41.790 130.006,41.667 130.165,41.667 130.425 C 41.667 130.722,41.561 130.823,41.208 130.864 C 40.851 130.905,40.739 131.016,40.698 131.365 C 40.658 131.711,40.545 131.825,40.198 131.865 C 39.852 131.905,39.738 132.018,39.698 132.365 C 39.658 132.711,39.545 132.825,39.198 132.865 C 38.849 132.905,38.738 133.018,38.697 133.375 C 38.656 133.731,38.556 133.833,38.250 133.833 C 37.944 133.833,37.844 133.936,37.803 134.292 C 37.761 134.652,37.652 134.761,37.292 134.803 C 36.908 134.847,36.833 134.935,36.833 135.344 C 36.833 135.777,36.775 135.833,36.333 135.833 C 35.889 135.833,35.833 135.889,35.833 136.333 C 35.833 136.778,35.778 136.833,35.333 136.833 C 34.915 136.833,34.833 136.899,34.833 137.239 C 34.833 137.558,34.735 137.656,34.375 137.697 C 34.018 137.738,33.905 137.849,33.865 138.198 C 33.825 138.545,33.711 138.658,33.365 138.698 C 33.018 138.738,32.905 138.852,32.865 139.198 C 32.825 139.545,32.711 139.658,32.365 139.698 C 32.018 139.738,31.905 139.852,31.865 140.198 C 31.825 140.545,31.711 140.658,31.365 140.698 C 31.018 140.738,30.905 140.852,30.865 141.198 C 30.825 141.545,30.711 141.658,30.365 141.698 C 30.019 141.738,29.905 141.852,29.865 142.198 C 29.829 142.512,29.704 142.662,29.448 142.698 C 28.765 142.795,28.822 144.423,29.513 144.561 C 30.204 144.699,380.429 144.660,381.083 144.522 C 381.376 144.460,381.652 144.260,381.748 144.041 C 381.897 143.701,382.027 143.666,383.165 143.665 C 385.131 143.662,385.667 143.533,385.667 143.062 C 385.667 142.690,385.726 142.667,386.667 142.667 L 387.667 142.667 387.667 142.167 L 387.667 141.667 388.667 141.667 L 389.667 141.667 389.667 141.167 C 389.667 140.681,389.689 140.667,390.467 140.667 C 391.312 140.667,391.667 140.460,391.667 139.967 C 391.667 139.744,391.796 139.667,392.167 139.667 C 392.611 139.667,392.667 139.611,392.667 139.167 C 392.667 138.722,392.722 138.667,393.167 138.667 C 393.611 138.667,393.667 138.611,393.667 138.167 C 393.667 137.722,393.722 137.667,394.167 137.667 C 394.589 137.667,394.667 137.602,394.667 137.250 C 394.667 136.960,394.758 136.833,394.967 136.833 C 395.344 136.833,395.667 136.519,395.667 136.151 C 395.667 135.990,395.844 135.825,396.083 135.765 C 396.411 135.683,396.500 135.554,396.500 135.163 C 396.500 134.751,396.567 134.667,396.899 134.667 C 397.360 134.667,397.500 134.394,397.500 133.497 C 397.500 132.921,397.547 132.850,397.958 132.803 C 398.392 132.753,398.419 132.699,398.467 131.792 C 398.507 131.009,398.570 130.833,398.808 130.833 C 399.352 130.833,399.500 130.470,399.500 129.133 C 399.500 128.089,399.549 127.833,399.750 127.833 C 399.972 127.833,400.000 121.472,400.000 71.583 C 400.000 21.694,399.972 15.333,399.750 15.333 C 399.556 15.333,399.500 15.113,399.500 14.347 C 399.500 13.386,399.487 13.357,399.000 13.250 C 398.521 13.145,398.500 13.104,398.500 12.250 C 398.500 11.482,398.431 11.290,398.000 10.859 C 397.661 10.520,397.500 10.194,397.500 9.846 C 397.500 9.390,397.446 9.333,397.009 9.333 C 396.542 9.333,396.516 9.295,396.467 8.542 C 396.426 7.899,396.344 7.719,396.030 7.583 C 395.808 7.487,395.604 7.222,395.551 6.956 C 395.490 6.659,395.323 6.462,395.077 6.400 C 394.864 6.347,394.653 6.135,394.599 5.921 C 394.544 5.700,394.333 5.494,394.103 5.437 C 393.860 5.376,393.662 5.172,393.599 4.918 C 393.523 4.615,393.382 4.500,393.089 4.500 C 392.812 4.500,392.616 4.356,392.466 4.042 C 392.280 3.651,392.131 3.576,391.457 3.533 C 390.705 3.484,390.667 3.458,390.667 2.991 C 390.667 2.554,390.610 2.500,390.154 2.500 C 389.806 2.500,389.480 2.339,389.141 2.000 C 388.710 1.569,388.518 1.500,387.748 1.500 C 386.898 1.500,386.853 1.478,386.803 1.042 C 386.752 0.602,386.707 0.581,385.708 0.534 C 384.932 0.497,384.667 0.423,384.667 0.242 C 384.667 0.031,361.340 0.000,200.000 0.000 C 35.963 0.000,15.333 0.028,15.333 0.250 M58.333 36.333 C 58.333 36.827,58.323 36.833,57.430 36.833 C 56.562 36.833,56.522 36.853,56.417 37.333 C 56.333 37.713,56.214 37.833,55.923 37.833 C 55.582 37.833,55.525 37.937,55.425 38.740 C 55.330 39.503,55.254 39.655,54.948 39.698 C 54.115 39.817,54.090 48.500,54.922 48.500 C 55.249 48.500,55.309 48.613,55.409 49.416 C 55.508 50.204,55.581 50.347,55.930 50.435 C 56.166 50.494,56.377 50.697,56.432 50.919 C 56.535 51.327,56.924 51.494,57.781 51.498 C 58.235 51.500,58.319 51.566,58.364 51.958 L 58.417 52.417 62.750 52.417 L 67.083 52.417 67.135 51.968 C 67.175 51.622,67.289 51.508,67.635 51.468 C 67.984 51.428,68.095 51.315,68.136 50.958 C 68.180 50.574,68.268 50.500,68.678 50.500 C 69.107 50.500,69.167 50.441,69.167 50.011 C 69.167 49.602,69.241 49.514,69.625 49.469 C 70.059 49.419,70.086 49.366,70.133 48.458 C 70.180 47.566,70.211 47.500,70.592 47.500 L 71.000 47.500 71.000 44.083 L 71.000 40.667 70.592 40.667 C 70.211 40.667,70.180 40.601,70.133 39.708 C 70.086 38.801,70.059 38.747,69.625 38.697 C 69.270 38.656,69.167 38.556,69.167 38.252 C 69.167 37.952,69.050 37.834,68.667 37.750 C 68.279 37.665,68.167 37.549,68.167 37.237 C 68.167 36.900,68.085 36.833,67.667 36.833 C 67.222 36.833,67.167 36.778,67.167 36.333 L 67.167 35.833 62.750 35.833 L 58.333 35.833 58.333 36.333 M40.667 44.672 L 40.667 52.511 42.625 52.464 L 44.583 52.417 44.629 49.458 L 44.674 46.500 47.587 46.500 L 50.500 46.500 50.500 46.083 C 50.500 45.793,50.591 45.667,50.800 45.667 C 51.293 45.667,51.500 45.312,51.500 44.467 C 51.500 43.783,51.547 43.667,51.827 43.667 C 52.336 43.667,52.500 43.148,52.500 41.544 C 52.500 40.020,52.368 39.667,51.800 39.667 C 51.547 39.667,51.500 39.522,51.500 38.750 C 51.500 37.843,51.495 37.833,51.000 37.833 C 50.556 37.833,50.500 37.778,50.500 37.333 L 50.500 36.833 45.583 36.833 L 40.667 36.833 40.667 44.672 M73.035 38.208 C 73.083 39.571,73.088 39.584,73.542 39.636 C 73.995 39.688,74.000 39.701,74.000 40.916 C 74.000 42.169,74.216 42.667,74.762 42.667 C 74.940 42.667,75.000 42.901,75.000 43.587 C 75.000 44.477,75.017 44.512,75.500 44.608 C 75.981 44.705,76.000 44.742,76.000 45.604 C 76.000 46.486,76.008 46.500,76.494 46.500 L 76.987 46.500 77.035 47.958 C 77.083 49.412,77.085 49.417,77.542 49.469 C 77.984 49.520,78.000 49.556,78.000 50.511 C 78.000 51.499,78.001 51.500,78.500 51.500 C 78.994 51.500,79.000 51.511,79.000 52.399 C 79.000 53.350,79.125 53.500,79.917 53.500 C 80.551 53.500,80.833 53.321,80.833 52.920 C 80.833 52.633,80.954 52.518,81.333 52.442 L 81.833 52.342 81.833 50.939 L 81.833 49.536 82.375 49.477 C 83.764 49.323,83.815 49.371,83.868 50.885 C 83.916 52.237,83.921 52.251,84.375 52.303 C 84.754 52.346,84.833 52.437,84.833 52.827 C 84.833 53.348,85.074 53.500,85.897 53.500 C 86.489 53.500,86.833 53.249,86.833 52.818 C 86.833 52.656,87.011 52.492,87.250 52.432 C 87.653 52.330,87.667 52.282,87.667 50.913 L 87.667 49.500 88.167 49.500 L 88.667 49.500 88.667 48.500 L 88.667 47.500 89.167 47.500 L 89.667 47.500 89.667 46.094 L 89.667 44.689 90.125 44.636 C 90.558 44.586,90.586 44.531,90.633 43.635 C 90.680 42.744,90.709 42.684,91.133 42.635 C 91.557 42.586,91.586 42.528,91.633 41.625 C 91.674 40.842,91.737 40.667,91.975 40.667 C 92.552 40.667,92.667 40.315,92.667 38.550 L 92.667 36.833 90.261 36.833 L 87.855 36.833 87.803 37.285 C 87.765 37.608,87.631 37.764,87.333 37.834 C 86.936 37.926,86.914 37.995,86.869 39.281 L 86.820 40.631 86.327 40.703 C 86.055 40.743,85.611 40.743,85.340 40.703 L 84.846 40.631 84.798 39.274 C 84.750 37.931,84.745 37.916,84.292 37.864 C 83.908 37.820,83.833 37.732,83.833 37.322 C 83.833 36.836,83.828 36.833,82.833 36.833 L 81.833 36.833 81.833 37.333 C 81.833 37.749,81.766 37.833,81.438 37.833 C 80.980 37.833,80.833 38.302,80.833 39.771 C 80.833 40.608,80.807 40.667,80.429 40.667 C 80.184 40.667,79.994 40.782,79.948 40.958 C 79.876 41.236,79.871 41.236,79.853 40.958 C 79.840 40.763,79.695 40.667,79.417 40.667 C 79.012 40.667,79.000 40.632,79.000 39.514 C 79.000 38.094,78.907 37.833,78.399 37.833 C 78.067 37.833,78.000 37.750,78.000 37.333 L 78.000 36.833 75.493 36.833 L 72.987 36.833 73.035 38.208 M95.667 44.667 L 95.667 52.500 100.000 52.500 L 104.333 52.500 104.333 50.500 L 104.333 48.500 101.917 48.500 L 99.500 48.500 99.500 47.500 L 99.500 46.500 101.505 46.500 L 103.511 46.500 103.464 44.625 L 103.417 42.750 101.458 42.703 L 99.500 42.656 99.500 41.661 L 99.500 40.667 101.917 40.667 L 104.333 40.667 104.333 38.750 L 104.333 36.833 100.000 36.833 L 95.667 36.833 95.667 44.667 M107.333 44.672 L 107.333 52.511 109.292 52.464 L 111.250 52.417 111.296 49.958 L 111.342 47.500 111.838 47.500 C 112.332 47.500,112.333 47.502,112.333 48.500 C 112.333 49.456,112.352 49.500,112.750 49.500 C 113.120 49.500,113.167 49.570,113.169 50.125 C 113.173 51.140,113.327 51.500,113.758 51.500 C 114.056 51.500,114.157 51.605,114.197 51.958 L 114.250 52.417 116.667 52.417 L 119.083 52.417 119.135 51.500 C 119.218 50.053,119.063 49.500,118.576 49.500 C 118.206 49.500,118.166 49.432,118.164 48.792 C 118.161 47.969,118.041 47.729,117.590 47.643 C 116.974 47.526,116.875 45.667,117.485 45.667 C 117.960 45.667,118.167 45.303,118.167 44.467 C 118.167 43.795,118.217 43.667,118.480 43.667 C 119.066 43.667,119.181 43.281,119.131 41.476 L 119.083 39.750 118.625 39.697 C 118.188 39.647,118.167 39.602,118.167 38.750 C 118.167 37.898,118.145 37.853,117.708 37.803 C 117.348 37.761,117.239 37.652,117.197 37.292 L 117.145 36.833 112.239 36.833 L 107.333 36.833 107.333 44.672 M122.040 44.625 L 122.083 52.417 126.458 52.461 L 130.833 52.506 130.833 50.503 L 130.833 48.500 128.417 48.500 L 126.000 48.500 126.000 47.500 L 126.000 46.500 127.917 46.500 L 129.833 46.500 129.833 44.583 L 129.833 42.667 127.917 42.667 L 126.000 42.667 126.000 41.667 L 126.000 40.667 128.417 40.667 L 130.833 40.667 130.833 38.750 L 130.833 36.833 126.415 36.833 L 121.997 36.833 122.040 44.625 M133.833 44.667 L 133.833 52.500 138.042 52.498 C 142.997 52.496,143.435 52.448,143.573 51.897 C 143.645 51.611,143.790 51.500,144.091 51.500 C 144.421 51.500,144.529 51.396,144.608 51.000 C 144.684 50.621,144.800 50.500,145.086 50.500 C 145.538 50.500,145.667 50.220,145.667 49.236 C 145.667 48.562,145.702 48.500,146.083 48.500 L 146.500 48.500 146.500 44.583 L 146.500 40.667 146.083 40.667 C 145.702 40.667,145.667 40.605,145.667 39.929 C 145.667 39.185,145.361 38.667,144.923 38.667 C 144.802 38.667,144.656 38.479,144.598 38.250 C 144.523 37.950,144.381 37.833,144.093 37.833 C 143.784 37.833,143.668 37.720,143.583 37.333 L 143.474 36.833 138.653 36.833 L 133.833 36.833 133.833 44.667 M158.333 44.664 L 158.333 52.500 162.928 52.500 C 167.670 52.500,168.167 52.436,168.167 51.827 C 168.167 51.593,168.280 51.500,168.566 51.500 C 169.038 51.500,169.167 51.229,169.167 50.236 C 169.167 49.572,169.205 49.500,169.564 49.500 C 170.061 49.500,170.161 49.161,170.164 47.472 C 170.167 45.926,170.082 45.667,169.569 45.667 L 169.173 45.667 169.128 41.792 L 169.083 37.917 168.635 37.865 C 168.289 37.825,168.175 37.711,168.135 37.365 L 168.083 36.917 163.208 36.872 L 158.333 36.828 158.333 44.664 M170.234 37.066 C 169.982 37.721,170.243 38.583,170.708 38.636 C 171.092 38.680,171.167 38.768,171.167 39.178 C 171.167 39.579,171.236 39.667,171.556 39.667 C 171.902 39.667,171.963 39.775,172.098 40.625 C 172.225 41.427,172.310 41.592,172.615 41.635 C 172.870 41.672,172.995 41.822,173.032 42.135 C 173.072 42.484,173.185 42.595,173.542 42.636 C 173.974 42.686,174.000 42.737,174.000 43.526 C 174.000 44.299,174.037 44.376,174.492 44.548 C 174.833 44.677,175.000 44.864,175.034 45.159 C 175.072 45.483,175.192 45.596,175.542 45.636 L 176.000 45.689 176.000 49.094 L 176.000 52.500 177.917 52.500 L 179.833 52.500 179.833 49.083 L 179.833 45.667 180.333 45.667 C 180.773 45.667,180.833 45.609,180.833 45.188 C 180.833 44.788,180.917 44.692,181.333 44.608 C 181.816 44.512,181.833 44.477,181.833 43.587 C 181.833 42.675,181.838 42.667,182.333 42.667 C 182.778 42.667,182.833 42.611,182.833 42.167 C 182.833 41.796,182.911 41.667,183.133 41.667 C 183.625 41.667,183.833 41.313,183.833 40.478 C 183.833 39.741,183.864 39.685,184.292 39.636 C 184.649 39.595,184.761 39.484,184.802 39.135 C 184.838 38.825,184.964 38.671,185.212 38.635 C 185.610 38.578,185.805 38.035,185.696 37.290 L 185.628 36.826 182.780 36.871 L 179.931 36.917 179.834 37.333 C 179.772 37.597,179.601 37.770,179.368 37.803 C 179.086 37.844,179.000 37.969,179.000 38.334 C 179.000 38.729,178.922 38.820,178.548 38.864 C 178.231 38.901,178.062 39.041,177.982 39.333 L 177.867 39.750 177.850 39.292 C 177.836 38.918,177.756 38.833,177.417 38.833 C 177.067 38.833,177.000 38.755,177.000 38.344 C 177.000 37.935,176.926 37.847,176.542 37.803 C 176.182 37.761,176.072 37.652,176.031 37.292 L 175.978 36.833 173.150 36.833 C 170.886 36.833,170.305 36.880,170.234 37.066 M63.225 40.167 C 63.322 40.650,63.356 40.667,64.246 40.667 L 65.167 40.667 65.167 41.467 C 65.167 42.312,65.373 42.667,65.867 42.667 C 66.133 42.667,66.167 42.833,66.167 44.156 L 66.167 45.645 65.708 45.697 C 65.281 45.746,65.247 45.809,65.200 46.625 L 65.149 47.500 64.255 47.500 C 63.396 47.500,63.355 47.520,63.250 48.000 C 63.122 48.583,62.333 48.755,62.333 48.200 C 62.333 47.707,61.979 47.500,61.133 47.500 C 60.342 47.500,60.333 47.494,60.331 46.958 C 60.327 46.018,60.164 45.667,59.731 45.667 C 59.110 45.667,59.109 42.759,59.730 42.603 C 60.153 42.497,60.327 42.091,60.331 41.208 L 60.333 40.667 61.254 40.667 C 62.144 40.667,62.178 40.650,62.275 40.167 C 62.351 39.789,62.467 39.667,62.750 39.667 C 63.033 39.667,63.149 39.789,63.225 40.167 M46.558 41.167 C 46.788 42.317,46.556 42.667,45.563 42.667 L 44.667 42.667 44.667 41.667 L 44.667 40.667 45.563 40.667 C 46.425 40.667,46.462 40.686,46.558 41.167 M113.250 41.167 C 113.497 42.290,113.243 42.667,112.237 42.667 L 111.333 42.667 111.333 41.667 L 111.333 40.667 112.237 40.667 C 113.105 40.667,113.144 40.686,113.250 41.167 M138.864 41.125 C 138.913 41.552,138.976 41.587,139.781 41.633 C 140.582 41.680,140.650 41.717,140.698 42.133 C 140.739 42.484,140.851 42.595,141.208 42.636 L 141.667 42.689 141.667 44.581 L 141.667 46.474 141.167 46.583 C 140.779 46.668,140.667 46.784,140.667 47.097 C 140.667 47.410,140.578 47.500,140.271 47.500 C 139.303 47.500,138.833 47.698,138.833 48.104 C 138.833 48.445,138.753 48.500,138.250 48.500 L 137.667 48.500 137.667 44.583 L 137.667 40.667 138.239 40.667 C 138.739 40.667,138.818 40.724,138.864 41.125 M164.202 41.167 C 164.385 42.409,164.218 42.667,163.231 42.667 L 162.333 42.667 162.333 41.667 L 162.333 40.667 163.231 40.667 C 164.101 40.667,164.131 40.682,164.202 41.167 M164.202 47.000 C 164.385 48.243,164.218 48.500,163.231 48.500 L 162.333 48.500 162.333 47.500 L 162.333 46.500 163.231 46.500 C 164.101 46.500,164.131 46.515,164.202 47.000 M40.343 65.312 C 39.732 65.485,39.655 66.075,39.705 70.202 L 39.750 73.917 44.124 73.961 L 48.498 74.006 48.541 87.711 L 48.583 101.417 52.917 101.417 L 57.250 101.417 57.293 87.711 L 57.335 74.006 61.709 73.961 L 66.083 73.917 66.083 69.881 C 66.083 66.229,66.055 65.817,65.786 65.547 C 65.475 65.237,41.390 65.014,40.343 65.312 M69.286 65.270 C 69.220 65.335,69.167 73.514,69.167 83.444 L 69.167 101.500 73.383 101.500 C 76.441 101.500,77.655 101.445,77.800 101.300 C 77.949 101.151,78.000 99.385,78.000 94.383 L 78.000 87.667 81.915 87.667 L 85.830 87.667 85.873 94.542 L 85.917 101.417 90.250 101.417 L 94.583 101.417 94.626 83.615 C 94.655 71.534,94.612 65.710,94.495 65.490 C 94.320 65.163,87.305 64.978,86.208 65.272 L 85.833 65.372 85.833 72.186 L 85.833 79.000 81.925 79.000 L 78.017 79.000 77.967 72.264 C 77.939 68.559,77.854 65.465,77.778 65.389 C 77.608 65.218,69.452 65.104,69.286 65.270 M98.686 65.393 C 98.549 65.558,98.510 70.430,98.541 83.518 L 98.583 101.417 109.333 101.417 L 120.083 101.417 120.130 97.417 C 120.156 95.217,120.136 93.248,120.085 93.042 L 119.994 92.667 113.663 92.667 L 107.333 92.667 107.333 90.167 L 107.333 87.667 112.753 87.667 L 118.172 87.667 118.128 83.375 L 118.083 79.083 112.708 79.039 L 107.333 78.995 107.333 76.498 L 107.333 74.000 113.250 74.000 L 119.167 74.000 119.167 69.783 C 119.167 66.726,119.112 65.512,118.967 65.367 C 118.655 65.055,98.946 65.080,98.686 65.393 M138.746 65.370 C 138.701 65.487,138.683 73.646,138.707 83.500 L 138.750 101.417 142.750 101.464 C 144.950 101.489,146.919 101.469,147.125 101.419 L 147.500 101.327 147.525 93.038 C 147.539 88.480,147.581 84.956,147.619 85.208 C 147.672 85.559,147.781 85.667,148.081 85.667 C 148.382 85.667,148.499 85.784,148.583 86.167 C 148.667 86.550,148.785 86.667,149.086 86.667 C 149.390 86.667,149.490 86.770,149.531 87.125 C 149.572 87.482,149.682 87.595,150.032 87.635 C 150.378 87.675,150.492 87.789,150.532 88.135 C 150.572 88.482,150.685 88.595,151.032 88.635 C 151.378 88.675,151.492 88.789,151.532 89.135 C 151.572 89.484,151.685 89.595,152.042 89.636 C 152.426 89.680,152.500 89.768,152.500 90.178 C 152.500 90.610,152.558 90.667,153.000 90.667 C 153.444 90.667,153.500 90.722,153.500 91.167 L 153.500 91.667 154.917 91.667 L 156.333 91.667 156.333 91.167 C 156.333 90.722,156.389 90.667,156.833 90.667 C 157.275 90.667,157.333 90.610,157.333 90.178 C 157.333 89.768,157.408 89.680,157.792 89.636 C 158.149 89.595,158.261 89.484,158.302 89.135 C 158.342 88.789,158.455 88.675,158.802 88.635 C 159.151 88.595,159.262 88.482,159.303 88.125 C 159.344 87.766,159.443 87.667,159.758 87.667 C 160.049 87.667,160.189 87.551,160.265 87.249 C 160.325 87.009,160.526 86.791,160.736 86.739 C 160.939 86.688,161.183 86.430,161.286 86.157 C 161.407 85.838,161.588 85.667,161.807 85.667 C 162.023 85.667,162.169 85.533,162.216 85.292 C 162.255 85.085,162.298 88.602,162.311 93.107 C 162.331 100.409,162.362 101.309,162.597 101.399 C 162.742 101.454,164.692 101.500,166.930 101.500 L 171.000 101.500 171.000 83.333 L 171.000 65.167 169.083 65.167 L 167.167 65.167 167.167 65.656 C 167.167 66.065,167.092 66.153,166.708 66.197 C 166.351 66.238,166.239 66.349,166.198 66.698 C 166.158 67.045,166.045 67.158,165.698 67.198 C 165.349 67.239,165.238 67.351,165.197 67.708 C 165.156 68.070,165.058 68.167,164.735 68.167 C 164.413 68.167,164.304 68.274,164.225 68.667 C 164.148 69.054,164.036 69.167,163.729 69.167 C 163.402 69.167,163.333 69.252,163.333 69.656 C 163.333 70.065,163.259 70.153,162.875 70.197 C 162.515 70.239,162.405 70.348,162.364 70.708 C 162.322 71.070,162.225 71.167,161.901 71.167 C 161.576 71.167,161.470 71.274,161.387 71.689 C 161.329 71.982,161.157 72.244,160.995 72.286 C 160.657 72.375,160.333 73.012,160.333 73.591 C 160.333 73.934,160.253 74.000,159.833 74.000 C 159.389 74.000,159.333 74.056,159.333 74.500 C 159.333 74.944,159.278 75.000,158.833 75.000 C 158.389 75.000,158.333 75.056,158.333 75.500 C 158.333 75.944,158.278 76.000,157.833 76.000 C 157.391 76.000,157.333 76.057,157.333 76.489 C 157.333 76.898,157.259 76.986,156.875 77.031 C 156.515 77.072,156.405 77.182,156.364 77.542 C 156.323 77.897,156.223 78.000,155.919 78.000 C 155.618 78.000,155.501 78.117,155.417 78.500 C 155.325 78.916,155.225 79.000,154.820 79.000 C 154.390 79.000,154.333 78.941,154.333 78.500 C 154.333 78.081,154.267 78.000,153.928 78.000 C 153.609 78.000,153.511 77.902,153.469 77.542 C 153.428 77.185,153.318 77.072,152.968 77.032 C 152.622 76.992,152.508 76.878,152.468 76.532 C 152.428 76.182,152.315 76.072,151.958 76.031 C 151.574 75.986,151.500 75.898,151.500 75.489 C 151.500 75.057,151.442 75.000,151.000 75.000 C 150.552 75.000,150.500 74.946,150.500 74.484 C 150.500 74.137,150.348 73.822,150.039 73.525 C 149.785 73.282,149.487 72.877,149.376 72.625 C 149.255 72.350,149.043 72.167,148.848 72.167 C 148.616 72.167,148.507 72.034,148.469 71.708 C 148.428 71.348,148.318 71.239,147.958 71.197 C 147.574 71.153,147.500 71.065,147.500 70.656 C 147.500 70.223,147.442 70.167,147.000 70.167 C 146.556 70.167,146.500 70.111,146.500 69.667 C 146.500 69.251,146.433 69.167,146.104 69.167 C 145.798 69.167,145.686 69.054,145.608 68.667 C 145.530 68.274,145.421 68.167,145.099 68.167 C 144.775 68.167,144.678 68.070,144.636 67.708 C 144.595 67.351,144.484 67.239,144.135 67.198 C 143.789 67.158,143.675 67.045,143.635 66.698 C 143.595 66.352,143.482 66.238,143.135 66.198 C 142.789 66.158,142.675 66.045,142.635 65.698 L 142.583 65.250 140.705 65.203 C 139.295 65.167,138.807 65.209,138.746 65.370 M187.944 65.278 C 187.883 65.339,187.833 65.561,187.833 65.771 C 187.833 66.137,187.771 66.156,186.375 66.202 C 184.922 66.250,184.916 66.252,184.864 66.708 C 184.814 67.146,184.770 67.167,183.901 67.167 C 183.024 67.167,182.988 67.184,182.892 67.667 C 182.808 68.083,182.712 68.167,182.313 68.167 C 181.891 68.167,181.833 68.227,181.833 68.667 C 181.833 69.102,181.773 69.167,181.373 69.167 C 181.055 69.167,180.861 69.283,180.748 69.542 C 180.657 69.748,180.415 69.991,180.208 70.081 C 180.002 70.172,179.833 70.339,179.833 70.452 C 179.833 70.566,179.646 70.782,179.417 70.932 C 179.171 71.093,179.000 71.363,179.000 71.591 C 179.000 71.889,178.895 71.990,178.542 72.031 C 178.160 72.075,178.075 72.174,178.031 72.625 C 177.992 73.028,177.898 73.167,177.662 73.167 C 177.246 73.167,177.000 73.653,177.000 74.478 C 177.000 74.980,176.924 75.168,176.692 75.242 C 176.202 75.398,176.000 76.079,176.000 77.580 L 176.000 78.978 175.542 79.031 L 175.083 79.083 175.039 83.440 C 174.993 87.992,175.072 88.667,175.656 88.667 C 175.957 88.667,175.991 88.797,176.035 90.125 C 176.083 91.578,176.085 91.584,176.542 91.636 C 176.979 91.686,177.000 91.730,177.000 92.599 C 177.000 93.476,177.018 93.512,177.500 93.608 C 177.950 93.698,178.000 93.771,178.000 94.341 C 178.000 95.228,178.141 95.500,178.601 95.500 C 178.933 95.500,179.000 95.584,179.000 96.000 C 179.000 96.424,179.064 96.500,179.421 96.500 C 179.755 96.500,179.862 96.603,179.942 97.000 C 180.018 97.381,180.132 97.500,180.424 97.500 C 180.714 97.500,180.834 97.622,180.917 98.000 C 181.008 98.416,181.108 98.500,181.513 98.500 C 181.891 98.500,182.000 98.576,182.000 98.837 C 182.000 99.215,182.573 99.500,183.333 99.500 C 183.731 99.500,183.820 99.577,183.864 99.958 C 183.914 100.391,183.969 100.419,184.859 100.466 C 185.686 100.510,185.813 100.563,185.898 100.902 C 186.019 101.383,186.595 101.496,188.940 101.498 C 190.579 101.500,190.634 101.512,190.730 101.895 C 190.956 102.798,196.500 102.798,196.500 101.896 C 196.500 101.503,196.513 101.500,198.458 101.483 C 200.785 101.464,201.231 101.367,201.303 100.868 C 201.351 100.540,201.455 100.500,202.270 100.500 C 203.128 100.500,203.194 100.471,203.352 100.017 C 203.494 99.611,203.638 99.517,204.269 99.423 C 204.835 99.338,205.062 99.213,205.198 98.914 C 205.309 98.672,205.548 98.498,205.814 98.467 C 206.150 98.428,206.262 98.312,206.303 97.958 C 206.347 97.574,206.435 97.500,206.844 97.500 C 207.274 97.500,207.333 97.441,207.333 97.011 C 207.333 96.602,207.408 96.514,207.792 96.469 C 208.149 96.428,208.261 96.318,208.302 95.969 C 208.338 95.655,208.463 95.505,208.718 95.469 C 209.016 95.426,209.112 95.256,209.239 94.542 C 209.351 93.911,209.469 93.667,209.664 93.667 C 210.127 93.667,210.333 93.296,210.333 92.467 C 210.333 91.775,210.379 91.667,210.671 91.667 C 211.126 91.667,211.333 91.059,211.333 89.724 C 211.333 88.779,211.377 88.624,211.664 88.549 C 212.208 88.407,212.332 87.473,212.330 83.500 C 212.329 79.248,212.296 79.000,211.731 79.000 C 211.344 79.000,211.333 78.964,211.333 77.601 C 211.333 76.277,211.307 76.173,210.833 75.667 C 210.520 75.331,210.333 74.954,210.333 74.657 C 210.333 74.012,210.015 73.360,209.641 73.242 C 209.433 73.176,209.333 72.984,209.333 72.651 C 209.333 72.237,209.254 72.142,208.833 72.058 C 208.446 71.981,208.333 71.869,208.333 71.563 C 208.333 71.345,208.270 71.167,208.192 71.167 C 207.970 71.167,207.333 70.565,207.333 70.355 C 207.333 70.252,207.238 70.167,207.120 70.167 C 206.881 70.167,206.333 69.585,206.333 69.331 C 206.333 69.241,206.108 69.167,205.833 69.167 C 205.389 69.167,205.333 69.111,205.333 68.667 C 205.333 68.225,205.277 68.167,204.844 68.167 C 204.435 68.167,204.347 68.092,204.303 67.708 C 204.254 67.284,204.188 67.246,203.409 67.201 C 202.649 67.156,202.549 67.104,202.382 66.659 C 202.197 66.170,202.188 66.167,200.848 66.167 C 199.537 66.167,199.500 66.156,199.500 65.768 C 199.500 65.548,199.381 65.323,199.236 65.268 C 198.876 65.129,188.083 65.139,187.944 65.278 M211.536 65.308 C 211.378 65.408,211.334 65.903,211.369 67.180 L 211.417 68.917 211.875 68.969 C 212.318 69.020,212.333 69.056,212.333 70.011 C 212.333 70.940,212.357 71.000,212.728 71.000 C 213.088 71.000,213.134 71.091,213.237 72.000 C 213.341 72.919,213.383 73.000,213.758 73.000 C 214.130 73.000,214.167 73.066,214.167 73.736 C 214.167 74.726,214.295 75.000,214.760 75.000 C 215.118 75.000,215.154 75.079,215.200 75.958 C 215.247 76.866,215.274 76.919,215.708 76.969 C 216.137 77.019,216.167 77.074,216.167 77.820 C 216.167 78.852,216.438 79.611,216.844 79.718 C 217.098 79.784,217.167 79.950,217.167 80.495 C 217.167 81.351,217.409 81.833,217.839 81.833 C 218.125 81.833,218.167 81.950,218.167 82.754 C 218.167 83.644,218.184 83.678,218.667 83.775 C 219.147 83.871,219.167 83.910,219.167 84.758 C 219.167 85.603,219.188 85.645,219.667 85.750 C 220.147 85.856,220.167 85.895,220.167 86.763 C 220.167 87.604,220.194 87.667,220.564 87.667 C 221.007 87.667,221.161 88.017,221.164 89.042 C 221.166 89.597,221.213 89.667,221.583 89.667 C 221.971 89.667,222.000 89.724,222.000 90.475 C 222.000 91.490,222.272 92.291,222.658 92.414 C 222.870 92.481,222.983 92.745,223.053 93.341 C 223.172 94.344,223.256 94.500,223.677 94.500 C 223.948 94.500,224.000 94.619,224.000 95.236 C 224.000 96.226,224.129 96.500,224.593 96.500 C 224.951 96.500,224.987 96.579,225.033 97.458 C 225.080 98.361,225.109 98.420,225.534 98.469 C 225.957 98.518,225.987 98.577,226.034 99.469 C 226.081 100.365,226.108 100.420,226.542 100.469 C 226.978 100.520,227.000 100.565,227.000 101.410 C 227.000 102.480,227.035 102.500,228.917 102.500 C 230.798 102.500,230.833 102.480,230.833 101.410 C 230.833 100.565,230.856 100.520,231.292 100.469 C 231.725 100.420,231.753 100.365,231.800 99.469 C 231.846 98.577,231.876 98.518,232.300 98.469 C 232.723 98.420,232.753 98.360,232.800 97.469 C 232.846 96.577,232.876 96.518,233.300 96.469 C 233.724 96.420,233.753 96.361,233.800 95.458 C 233.846 94.581,233.883 94.500,234.237 94.500 C 234.643 94.500,234.833 94.021,234.833 92.999 C 234.833 92.680,234.935 92.512,235.165 92.452 C 235.560 92.349,235.831 91.709,235.839 90.864 C 235.844 90.204,236.076 89.795,236.542 89.620 C 236.771 89.534,236.833 89.314,236.833 88.589 C 236.833 87.716,236.856 87.667,237.250 87.667 C 237.643 87.667,237.667 87.615,237.667 86.771 C 237.667 85.909,237.686 85.871,238.167 85.775 C 238.648 85.679,238.667 85.642,238.667 84.775 C 238.667 83.908,238.685 83.871,239.167 83.775 C 239.650 83.678,239.667 83.644,239.667 82.754 C 239.667 81.979,239.714 81.833,239.967 81.833 C 240.457 81.833,240.667 81.480,240.667 80.653 C 240.667 80.014,240.727 79.856,240.998 79.786 C 241.404 79.679,241.667 79.034,241.667 78.144 C 241.667 77.464,241.853 77.152,242.375 76.954 C 242.604 76.868,242.667 76.647,242.667 75.933 C 242.667 75.063,242.687 75.020,243.125 74.969 C 243.559 74.919,243.586 74.866,243.633 73.958 C 243.679 73.079,243.715 73.000,244.074 73.000 C 244.538 73.000,244.667 72.726,244.667 71.736 C 244.667 71.072,244.705 71.000,245.064 71.000 C 245.506 71.000,245.661 70.649,245.664 69.637 C 245.666 69.128,245.731 69.014,246.042 68.970 C 246.495 68.905,246.728 65.581,246.298 65.308 C 245.976 65.104,237.541 65.133,237.156 65.339 C 236.903 65.474,236.833 65.692,236.833 66.339 C 236.833 67.147,236.822 67.167,236.333 67.167 L 235.833 67.167 235.833 68.167 L 235.833 69.167 235.333 69.167 L 234.833 69.167 234.833 70.167 L 234.833 71.167 234.333 71.167 C 233.838 71.167,233.833 71.176,233.833 72.083 C 233.833 72.855,233.786 73.000,233.533 73.000 C 233.040 73.000,232.833 73.354,232.833 74.200 C 232.833 74.933,232.800 75.000,232.434 75.000 C 231.962 75.000,231.833 75.271,231.833 76.264 C 231.833 76.928,231.794 77.000,231.438 77.000 C 231.020 77.000,230.833 77.471,230.833 78.521 C 230.833 78.916,230.763 79.000,230.433 79.000 C 230.068 79.000,230.023 79.088,229.918 79.990 C 229.821 80.828,229.748 80.989,229.450 81.032 C 229.239 81.063,229.051 81.251,228.982 81.500 L 228.867 81.917 228.850 81.458 C 228.837 81.114,228.749 81.000,228.495 81.000 C 228.113 81.000,228.068 80.904,227.919 79.792 C 227.825 79.093,227.765 79.000,227.406 79.000 C 227.037 79.000,227.000 78.933,227.000 78.264 C 227.000 77.274,226.871 77.000,226.407 77.000 C 226.049 77.000,226.013 76.921,225.967 76.042 C 225.919 75.134,225.892 75.081,225.458 75.031 C 225.021 74.980,225.000 74.937,225.000 74.068 C 225.000 73.191,224.982 73.155,224.500 73.058 C 224.019 72.962,224.000 72.925,224.000 72.063 C 224.000 71.178,223.994 71.167,223.500 71.167 L 223.000 71.167 223.000 70.167 L 223.000 69.167 222.500 69.167 L 222.000 69.167 222.000 68.167 L 222.000 67.167 221.500 67.167 C 221.012 67.167,221.000 67.147,221.000 66.339 C 221.000 65.692,220.930 65.474,220.678 65.339 C 220.292 65.133,211.857 65.104,211.536 65.308 M249.387 65.283 C 248.551 65.445,248.586 64.691,248.539 83.427 C 248.498 99.275,248.520 100.996,248.759 101.235 C 248.987 101.463,249.604 101.500,253.179 101.500 L 257.333 101.500 257.333 83.434 C 257.333 67.115,257.308 65.359,257.070 65.268 C 256.779 65.156,249.968 65.170,249.387 65.283 M261.833 65.313 L 261.417 65.432 261.417 83.424 L 261.417 101.417 272.125 101.460 L 282.833 101.502 282.833 97.085 L 282.833 92.667 276.500 92.667 L 270.167 92.667 270.167 90.167 L 270.167 87.667 275.500 87.667 L 280.833 87.667 280.833 83.333 L 280.833 79.000 275.500 79.000 L 270.167 79.000 270.167 76.502 L 270.167 74.004 276.458 73.960 L 282.750 73.917 282.750 69.881 C 282.750 66.229,282.722 65.816,282.452 65.547 C 282.140 65.235,262.878 65.016,261.833 65.313 M300.576 66.376 C 300.298 67.099,300.595 101.833,300.881 102.119 C 301.155 102.394,301.637 102.417,307.074 102.417 L 312.969 102.417 313.330 101.958 L 313.691 101.500 315.970 101.498 C 318.609 101.495,318.963 101.431,319.032 100.941 C 319.077 100.630,319.207 100.577,320.042 100.533 C 320.977 100.485,321.000 100.472,321.000 100.000 C 321.000 99.528,321.023 99.515,321.958 99.467 C 322.866 99.419,322.919 99.392,322.969 98.958 C 323.014 98.574,323.102 98.500,323.511 98.500 C 323.943 98.500,324.000 98.442,324.000 98.000 C 324.000 97.556,324.056 97.500,324.500 97.500 C 324.944 97.500,325.000 97.444,325.000 97.000 C 325.000 96.556,325.056 96.500,325.500 96.500 C 325.944 96.500,326.000 96.444,326.000 96.000 C 326.000 95.584,326.067 95.500,326.399 95.500 C 326.860 95.500,327.000 95.228,327.000 94.331 C 327.000 93.754,327.047 93.683,327.458 93.636 C 327.892 93.586,327.919 93.532,327.967 92.625 C 328.013 91.745,328.049 91.667,328.407 91.667 C 328.911 91.667,329.000 91.404,329.000 89.915 C 329.000 88.771,329.025 88.686,329.375 88.637 L 329.750 88.583 329.797 84.250 C 329.848 79.515,329.823 79.239,329.333 79.083 C 329.046 78.992,329.000 78.831,329.000 77.916 C 329.000 76.606,328.790 76.000,328.337 76.000 C 328.054 76.000,328.000 75.892,328.000 75.322 C 328.000 74.481,327.755 74.000,327.327 74.000 C 327.108 74.000,327.000 73.887,327.000 73.658 C 327.000 73.210,326.574 72.397,326.280 72.285 C 326.152 72.235,326.001 71.964,325.945 71.681 C 325.863 71.274,325.756 71.167,325.432 71.167 C 325.109 71.167,325.011 71.070,324.969 70.708 C 324.928 70.348,324.818 70.239,324.458 70.197 C 324.155 70.162,324.000 70.047,324.000 69.856 C 324.000 69.373,323.640 69.167,322.800 69.167 C 322.022 69.167,322.000 69.153,322.000 68.667 C 322.000 68.226,321.942 68.167,321.518 68.167 C 321.212 68.167,320.839 67.984,320.500 67.667 C 320.031 67.228,319.844 67.167,318.982 67.167 C 318.107 67.167,318.000 67.130,318.000 66.829 C 318.000 66.620,317.837 66.430,317.572 66.329 C 316.886 66.068,300.677 66.113,300.576 66.376 M333.033 66.367 C 332.880 66.520,332.834 70.642,332.834 83.908 L 332.835 101.250 333.214 101.724 C 333.773 102.422,334.403 102.485,340.933 102.493 C 348.278 102.502,349.303 102.429,349.438 101.892 C 349.530 101.523,349.611 101.500,350.827 101.500 C 352.311 101.500,353.109 101.276,353.254 100.819 C 353.324 100.600,353.509 100.500,353.845 100.500 C 354.277 100.500,354.333 100.442,354.333 100.000 C 354.333 99.556,354.389 99.500,354.833 99.500 C 355.278 99.500,355.333 99.444,355.333 99.000 C 355.333 98.556,355.389 98.500,355.833 98.500 C 356.278 98.500,356.333 98.444,356.333 98.000 C 356.333 97.556,356.389 97.500,356.833 97.500 L 357.333 97.500 357.333 96.500 L 357.333 95.500 357.833 95.500 L 358.333 95.500 358.333 90.989 C 358.333 86.332,358.268 85.833,357.661 85.833 C 357.408 85.833,357.333 85.719,357.333 85.333 C 357.333 84.889,357.278 84.833,356.833 84.833 L 356.333 84.833 356.333 83.833 L 356.333 82.833 356.833 82.833 L 357.333 82.833 357.333 81.833 L 357.333 80.833 357.833 80.833 L 358.333 80.833 358.317 76.958 C 358.298 72.696,358.245 72.275,357.710 72.198 C 357.396 72.152,357.343 72.023,357.300 71.198 C 357.253 70.302,357.225 70.247,356.792 70.197 C 356.408 70.153,356.333 70.065,356.333 69.656 C 356.333 69.223,356.275 69.167,355.833 69.167 C 355.389 69.167,355.333 69.111,355.333 68.667 C 355.333 68.222,355.278 68.167,354.833 68.167 C 354.389 68.167,354.333 68.111,354.333 67.667 C 354.333 67.173,354.323 67.167,353.430 67.167 C 352.562 67.167,352.522 67.147,352.417 66.667 L 352.307 66.167 342.770 66.167 C 335.575 66.167,333.184 66.216,333.033 66.367 M196.583 74.500 C 196.689 74.980,196.730 75.000,197.586 75.000 C 198.435 75.000,198.480 75.022,198.531 75.458 C 198.572 75.818,198.682 75.928,199.042 75.969 C 199.403 76.011,199.500 76.109,199.500 76.432 C 199.500 76.754,199.607 76.863,200.000 76.942 C 200.389 77.019,200.500 77.131,200.500 77.442 C 200.500 77.751,200.611 77.864,200.992 77.940 C 201.451 78.032,201.487 78.095,201.534 78.894 C 201.580 79.690,201.616 79.754,202.042 79.803 L 202.500 79.855 202.500 83.333 C 202.500 86.697,202.489 86.814,202.157 86.920 C 201.768 87.043,201.500 87.624,201.500 88.344 C 201.500 88.754,201.433 88.833,201.087 88.833 C 200.777 88.833,200.645 88.946,200.561 89.282 C 200.428 89.809,199.513 90.775,199.064 90.860 C 198.891 90.893,198.727 91.084,198.698 91.284 C 198.659 91.557,198.514 91.660,198.115 91.699 C 197.674 91.741,197.574 91.829,197.531 92.208 L 197.478 92.667 193.572 92.667 L 189.667 92.667 189.667 92.167 C 189.667 91.732,189.607 91.667,189.206 91.667 C 188.893 91.667,188.693 91.550,188.581 91.300 C 188.484 91.082,188.180 90.873,187.833 90.785 C 187.031 90.581,186.868 90.411,186.711 89.610 C 186.605 89.073,186.491 88.905,186.204 88.863 C 185.920 88.823,185.833 88.699,185.833 88.335 C 185.833 88.028,185.655 87.681,185.333 87.359 L 184.833 86.859 184.833 83.346 L 184.833 79.833 185.231 79.833 C 185.664 79.833,185.827 79.482,185.831 78.542 C 185.833 78.132,185.906 78.000,186.133 78.000 C 186.511 78.000,186.833 77.686,186.833 77.318 C 186.833 77.156,187.011 76.992,187.250 76.932 C 187.554 76.855,187.667 76.716,187.667 76.413 C 187.667 76.065,187.745 76.000,188.167 76.000 C 188.609 76.000,188.667 75.944,188.667 75.508 C 188.667 75.027,188.686 75.016,189.625 74.967 C 190.532 74.919,190.586 74.892,190.636 74.458 L 190.689 74.000 193.581 74.000 L 196.474 74.000 196.583 74.500 M315.197 75.458 C 315.244 75.869,315.324 75.922,315.961 75.968 C 316.521 76.009,316.747 76.123,317.034 76.510 C 317.248 76.799,317.549 77.000,317.770 77.000 C 318.055 77.000,318.157 77.110,318.197 77.458 C 318.239 77.818,318.348 77.928,318.708 77.969 C 319.146 78.020,319.167 78.064,319.167 78.928 C 319.167 79.823,319.172 79.833,319.667 79.833 L 320.167 79.833 320.167 81.247 C 320.167 82.616,320.180 82.664,320.583 82.765 C 321.096 82.893,321.249 85.000,320.746 85.000 C 320.386 85.000,320.167 85.694,320.167 86.833 C 320.167 87.674,320.119 87.826,319.824 87.920 C 319.453 88.037,319.167 88.618,319.167 89.250 C 319.167 89.557,319.064 89.656,318.708 89.697 C 318.351 89.738,318.239 89.849,318.198 90.198 C 318.158 90.545,318.045 90.658,317.698 90.698 C 317.349 90.739,317.238 90.851,317.197 91.208 C 317.155 91.576,317.060 91.667,316.715 91.667 C 316.456 91.667,316.097 91.864,315.808 92.167 C 315.366 92.630,315.244 92.667,314.154 92.667 C 312.840 92.667,312.333 92.854,312.333 93.339 C 312.333 93.640,312.213 93.667,310.833 93.667 L 309.333 93.667 309.333 84.333 L 309.333 75.000 312.239 75.000 L 315.145 75.000 315.197 75.458 M348.500 75.399 C 348.500 75.619,348.725 76.039,349.000 76.333 C 349.689 77.070,349.710 77.954,349.042 78.031 C 348.685 78.072,348.572 78.182,348.532 78.532 C 348.492 78.878,348.378 78.992,348.032 79.032 C 347.714 79.068,347.568 79.192,347.530 79.458 C 347.477 79.831,347.458 79.833,344.572 79.833 L 341.667 79.833 341.667 77.417 L 341.667 75.000 345.083 75.000 L 348.500 75.000 348.500 75.399 M348.531 89.125 C 348.572 89.485,348.682 89.595,349.042 89.636 C 349.627 89.703,349.780 91.667,349.200 91.667 C 348.816 91.667,348.500 91.983,348.500 92.367 C 348.500 92.572,348.374 92.667,348.101 92.667 C 347.881 92.667,347.461 92.892,347.167 93.167 L 346.631 93.667 344.149 93.667 L 341.667 93.667 341.667 91.167 L 341.667 88.667 345.072 88.667 L 348.478 88.667 348.531 89.125 " stroke="none" fill="#04d474" fill-rule="evenodd"></path><path id="path1" d="" stroke="none" fill="#08d474" fill-rule="evenodd"></path><path id="path2" d="" stroke="none" fill="#08d474" fill-rule="evenodd"></path><path id="path3" d="" stroke="none" fill="#08d474" fill-rule="evenodd"></path><path id="path4" d="" stroke="none" fill="#08d474" fill-rule="evenodd"></path></g></svg>